<svg xmlns="http://www.w3.org/2000/svg" viewBox="0 0 339.43 295.27">
  <path fill="#50AF95" d="M62.15 1.45l-61.89 130a2.52 2.52 0 00.54 2.94l167.15 160.17a2.55 2.55 0 003.53 0L338.63 134.4a2.52 2.52 0 00.54-2.94l-61.89-130A2.5 2.5 0 00274.99 0H64.44a2.5 2.5 0 00-2.29 1.45z"/>
  <path fill="#fff" d="M191.19 144.8v-.12c-1.2.09-7.4.46-21.23.46-11 0-18.81-.33-21.55-.46v.13c-42.51-1.87-74.24-9.27-74.24-18.13s31.73-16.25 74.24-18.15v28.91c2.78.19 10.93.64 21.74.64 12.93 0 19.81-.53 21-.64v-28.9c42.42 1.89 74.08 9.29 74.08 18.13s-31.65 16.24-74.08 18.12zm0-39.25V79.68h59.2V40.23H89.21v39.45h59.2v25.86c-48.11 2.17-84.22 11.73-84.22 23.15s36.11 21 84.22 23.15v82.84h42.78v-82.82c48-2.17 84-11.71 84-23.13s-36-21-84-23.18z"/>
</svg>
